<svg viewBox="0 0 1000 1000" xmlns="http://www.w3.org/2000/svg" fill-rule="evenodd" clip-rule="evenodd" stroke-linejoin="round" stroke-miterlimit="2"><g fill-rule="nonzero"><path d="M536.8 20.3c-6-9-55.1-29.7-71.9 1.9-9 16.8 10.3 20.9 8 35.7-2.8 18.7 2.4 21.7.6 22-1.4.5-57.3 7.7-57.3 7.7l-11.7-28.3c-13.4-32.8 5.7-39.9-32.1-38.4-15.9.6-35.4-4.8-23.6 30.6 1.3 3.6 6 16.4 11.1 28.3 9.3 21.7 9.3 21.7 4.8 23.5-2.4.8-47.4 20.7-48.6 21.3-1 .4-9.9-10.8-19.7-24.9-9.7-14.3-8.8-43.5-11.6-45-7-3.7-44.9-1.8-51.3 2.4-7.5 4.8-36.7 15.8-29.2 42.7 1 3.6 38.2 15.6 47.3 28.7 9 12.8 21.3 23.7 20.9 23.9-6.7 4.4-49.7 41.6-49.7 41.6l-19.5-23.5c-20.1-24-13.7-60.4-25.6-60.4-13 0-34.6 43.1-32.5 63.4 2 20.2 42 43 42.8 63.3.8 20.2-36.6 53.1-38.2 58-.6 1.3-12.3-8-27-21.4-15.7-27-22.8-48.9-54-28.5-18.4 12-30.8 36.7-28.7 48 5.2 28.1 27.8 4.8 67.3 33.6l20.7 19.1s-20 75.6-22.5 111l-2.4 30.8-44 17.8c-25 9.6-27.1 27.9-28.5 31.7C27 547.7 4 689.7 7.9 698.6c4.4 10.6 34.7 13 46.8 13 12.7 0 36.2 1.4 39.5-10.3 1.2-4.2-14.4-45.4-14.4-88.9 0 0 .5-36 6-43.6 5.2-7.2 26.6-1.5 26.6-1.5l9.8 29.2c5.2 34.3 13.1 44.3 31.6 77.9C174 711 221 742.8 231 774.7c9.3 29.4-18.5 52.7-31 79.2s13.2 74.5-43.8 80c-23 2.1-67.6-30.2-91-3.6-9.6 6.4-11.4 29.4 9.8 46.3 5.6 14.7 40.6 12.4 81.8 13 39.2.8 82.5.2 89.3-7.3 10.7-11.6-5-34.5 14.5-76.6 19.7-42 67.6-56.4 68.4-57.2 18.7 3.5 24.9 6 49.4 14a384.6 384.6 0 00241 .6c24.6-8 57.7-13.7 58-13.3.3.4 38.8 9.3 58.3 52 19.7 42.6-14.4 69.5 2.6 84.2 17 14.7 61.5 4 99.5 4 26.2 0 38.2-.8 42.9-2.8 60.2 0 59.9-15.9 53.5-43.4-12.1-52.4-48.3-19.3-73-16-73.8 10.2-50.5-42.1-65.1-68.5-14.6-26.3-52.5-47.9-22.4-89.7a396.6 396.6 0 00105.2-175.5c5.4-19.3 11.2-45.6 29-45 14.4.4 15.4 23.4 15.4 23.4l-3 41.5c0 81.6-23.4 90.8-13.7 99.5 3.2 3 33.2 10 41 10 12.7 0 34-14.2 37.3-25.9 3-10.8-9.5-157.8-12.5-166.7-1.4-3.8-20-54.6-44.4-61.4-55.8-15.5-38.3-61.8-45.3-89.5-4.9-19.1-5-22.1-2.4-24.1l34.5-29.2c33.4-28.3 55.3-10.2 57.9-32.2-2.7-12.9-30.2-27.7-53.4-33.5-9-2.3-20.1 2.7-32 24.3a51.3 51.3 0 01-28.8 23.1c-1 0-20.9-36-28-46.8a227 227 0 01-12.8-21.2c.2-.8 4.4-4.8 9.7-9 5.2-4 19-16.7 30.7-28.2 23.3-22.3 46.4-11 41.5-25.4-4.6-13-33.9-58.1-59.5-45.5-21.8 10.8-10.5 30.1-26 44.8l-28 26.5s-16.8-16.7-25.7-24.5a176.4 176.4 0 01-16.7-15.9 184 184 0 0117.7-28c23-33.1 44.3-33 42.9-41.9-3.3-19.7-45.7-45.2-60.7-33.3-2.8 2.2-10 28.8-19.6 42.9-24.5 35.8-21.7 33.4-31.6 27.1-4.4-2.8-40.4-20.9-40.8-21.3-.6-.4 4.6-13.6 11.3-29.5 6.6-15.7 28.4-31.4 28.4-34.6 0-13.7-31-37.1-54-26-11.7 5.7-4.8 7-19.9 42.5-10.4 25.1-14.2 32-16.7 31.1-9.6-2.8-75.6-12.2-75.6-12.2l3.5-23.4c8.9-14.7 15.3-14.3 8.2-36.3zm-53.7 307.6c67.4-28.9 77-70.3 148.5-77 85.8-8 85 117.5 84 148.5-1 27.8-38.6 59-64.2 66.2-100.7 28.1-110-48.8-176-28.1-48.3 6.6-50 90-111.8 47.6a117.8 117.8 0 01-48.5-86.3c-6.6-105.2 99.2-68 168-70.9zm295.5 248c17 22.9-15 58.6-25.4 78.1-18.5 34.2-79.6 77.4-109.8 97.3-56.3 37.4-133 48.9-206 30.6-66.4-16.7-159.6-68.6-196.8-133.4-16.9-29.5-28.1-41-14.5-55.2 22-23.1 26.8 39.4 272.5 39.4 178.5 0 266.5-75.1 280-56.9z"/><path d="M383.1 339c-16 6.4-25.9 21.5-26 39.6 0 30 29.9 49.2 57.2 36.8 30.2-13.7 30.8-58.3 1.2-74-9.4-4.8-23.3-6-32.4-2.4zM596.4 368.7c-16.1 6.4-26 21.5-26.2 39.6 0 30 30 49.3 57.3 36.8 30.2-13.7 30.8-58.3 1.3-74-9.5-4.8-23.4-6-32.4-2.4z"/></g></svg>