<?xml version="1.0" encoding="utf-8"?>
<!-- Svg Vector Icons : http://www.onlinewebfonts.com/icon -->
<!DOCTYPE svg PUBLIC "-//W3C//DTD SVG 1.1//EN" "http://www.w3.org/Graphics/SVG/1.1/DTD/svg11.dtd">
<svg version="1.1" xmlns="http://www.w3.org/2000/svg" xmlns:xlink="http://www.w3.org/1999/xlink" x="0px" y="0px" viewBox="0 0 1000 1000" enable-background="new 0 0 1000 1000" xml:space="preserve">
<metadata> Svg Vector Icons : http://www.onlinewebfonts.com/icon </metadata>
<g><g transform="translate(0.000000,511.000000) scale(0.100000,-0.100000)"><path d="M4920.1,4995.8c-40.2-14.1-88.5-52.3-114.6-92.5c-42.2-62.3-46.2-90.5-46.2-327.8c0-189-6-261.4-24.1-265.4c-14.1-4-120.6-18.1-237.3-30.2c-116.6-14.1-239.3-28.2-273.5-34.2l-62.3-12.1l-116.6,283.5c-134.7,327.7-181,384-321.7,384c-158.8,0-277.5-156.8-235.3-305.6c12.1-36.2,60.3-164.9,110.6-283.5c92.5-217.2,92.5-217.2,48.3-235.2c-24.1-8-138.7-58.3-255.4-110.6c-116.6-50.3-219.2-96.5-231.2-102.5c-10.1-4-98.5,108.6-197,249.3c-96.5,142.8-199.1,271.4-227.2,287.5c-70.4,36.2-189,32.2-253.3-10c-74.4-48.3-122.6-176.9-98.5-263.4c10.1-36.2,92.5-170.9,183-301.6c90.5-128.7,160.8-237.3,156.8-239.3c-66.3-44.2-219.2-168.9-341.8-277.5l-154.8-138.7l-195,235.3c-201.1,239.3-241.3,269.4-359.9,269.4c-130.7,0-251.3-162.9-221.2-299.6c6-30.2,110.6-174.9,231.2-319.7l219.2-261.4l-74.4-98.5c-72.4-94.5-313.7-484.6-329.8-532.8c-6-14.1-122.6,78.4-269.4,213.1c-357.9,329.7-392.1,347.9-540.9,285.5c-82.4-34.2-130.7-120.6-130.7-235.3c0-80.4,10.1-96.5,156.8-239.3c84.5-84.4,247.3-239.3,359.9-341.8l207.1-191l-60.3-191c-84.5-267.4-138.7-565-164.9-918.9l-24.1-307.6H756c-251.3,0-279.5-4-341.8-46.3c-38.2-26.1-78.4-76.4-92.5-114.6c-36.2-108.6-36.2-1847.8,2-1936.2c44.2-106.6,102.5-144.8,223.2-144.8c126.7,0,199.1,52.3,231.2,168.9c12.1,42.2,20.1,388.1,20.1,822.4v748H945h148.8l24.1-164.9c52.3-343.8,235.2-866.6,420.2-1202.4c201.1-366,452.4-693.7,772.1-1003.3l176.9-172.9l-345.8-737.9l-345.8-739.9H1510c-261.4,0-289.5-4-351.9-46.2c-96.5-64.4-136.7-183-96.5-285.5c56.3-146.8,94.5-160.8,506.7-166.9c392.1-8,482.6,6,550.9,80.4c24.1,26.1,203.1,390,398.1,810.3c197,420.2,363.9,772.1,372,780.1c8,10,50.3-6,94.5-32.2c183-114.6,554.9-287.5,800.2-367.9c794.2-259.4,1628.6-263.4,2410.8-6c245.3,80.4,619.3,249.3,802.2,361.9c54.3,34.2,100.5,58.3,104.6,54.3c2-4,164.9-353.9,359.9-780.1c197-426.3,372-790.2,390-812.3c70.4-78.4,146.8-92.5,526.8-92.5c261.4,0,382,8,428.3,28.2c179,74.4,197,331.7,30.2,434.3c-58.3,36.2-100.5,40.2-357.9,40.2h-291.5l-337.8,729.9c-185,400.1-335.8,733.9-335.8,739.9c0,6,100.5,110.6,223.2,231.2c508.7,500.7,862.6,1091.8,1051.6,1755.3c54.3,193,112.6,460.4,112.6,524.8c0,36.2,12,40.2,150.8,40.2h150.8v-764.1c0-816.3,4-848.5,100.5-935c32.2-30.2,72.4-40.2,150.8-40.2c126.7,0,199.1,52.3,231.2,168.9c30.2,108.6,24.1,1823.7-6,1912.1c-14.1,38.2-54.3,88.5-92.5,114.6c-62.3,42.2-90.5,46.3-343.8,46.3h-275.5l-14.1,237.2c-18.1,297.6-56.3,559-126.7,836.4c-48.2,191-50.3,221.2-24.1,241.3c16.1,12.1,170.9,142.8,345.8,291.5c333.8,283.5,374,339.8,347.8,470.5c-26.1,128.7-172.9,219.2-303.6,187c-26.1-6-170.9-116.6-319.7-243.3c-148.8-126.7-277.5-231.2-287.5-231.2c-10,0-48.2,60.3-84.5,136.7c-36.2,74.4-124.6,223.2-195,331.8c-70.4,108.6-128.7,203.1-128.7,211.1c2,8.1,44.2,48.3,96.5,90.5c52.3,40.2,191,166.9,307.6,281.5c233.2,223.2,255.4,267.4,207.1,410.2c-46.3,130.7-183,195-305.6,142.8c-34.2-14.1-187-144.8-341.8-291.5l-279.5-265.4l-48.3,52.3c-26.2,28.2-120.6,114.6-209.1,193c-88.5,78.4-162.9,148.8-166.9,158.9c-4,8,74.4,134.7,176.9,279.5c229.2,331.7,249.3,367.9,235.3,456.4c-32.2,197.1-233.2,281.5-384,162.9c-28.1-22.1-128.7-154.8-225.2-295.6c-245.3-357.9-217.2-333.8-315.7-271.4c-44.2,28.1-152.8,86.4-241.3,128.7c-88.5,42.2-162.9,80.4-166.9,84.4c-6.1,4,46.2,136.7,112.6,295.6c66.3,156.8,120.6,313.7,120.6,345.8c0,136.7-108.6,237.2-257.4,237.2c-130.7,0-166.9-48.2-317.7-402.1c-104.6-251.3-142.8-319.7-166.9-311.6c-96.5,28.1-359.9,76.4-544.9,98.5l-211.1,24.1l-10,271.4c-8.1,213.1-18.1,283.5-44.2,325.7C5137.2,4997.8,5030.7,5032,4920.1,4995.8z M5314.2,3190.2c717.8-126.7,1290.8-653.5,1500-1377.3c40.2-138.7,46.2-201.1,44.2-510.7c0-323.7-4-365.9-54.3-528.8c-191-621.3-631.4-1079.7-1232.5-1278.8c-862.6-289.5-1823.6,116.6-2239.9,943c-88.5,176.9-152.8,367.9-181,550.9c-36.2,219.2-16.1,645.4,40.2,834.4c201.1,697.7,754,1216.4,1447.7,1359.2C4799.4,3214.4,5153.3,3220.4,5314.2,3190.2z M7288.6-796.9c66.3-36.2,124.7-132.7,124.7-207.1c0-88.5-88.5-327.7-193-522.8c-185-341.8-484.6-677.6-786.2-876.6c-563-374-1331-488.6-2060.9-305.6c-663.5,166.9-1238.6,619.3-1610.5,1266.7c-168.9,295.6-205.1,436.3-144.8,552.9c64.3,126.7-74.4,118.6,2382.6,118.6C6786-770.7,7252.4-774.7,7288.6-796.9z"/><path d="M4819.6,1742.6c-160.8-64.3-259.4-215.1-261.4-396.1c0-299.6,299.6-492.6,573.1-368c301.6,136.7,307.6,583.1,12.1,739.9C5048.8,1766.7,4910,1778.8,4819.6,1742.6z"/></g></g>
</svg>