<?xml version="1.0" encoding="iso-8859-1"?>
<!-- Generator: Adobe Illustrator 19.0.0, SVG Export Plug-In . SVG Version: 6.00 Build 0)  -->
<svg version="1.1" id="Layer_1" xmlns="http://www.w3.org/2000/svg" xmlns:xlink="http://www.w3.org/1999/xlink" x="0px" y="0px"
	 viewBox="0 0 512 512" style="enable-background:new 0 0 512 512;" xml:space="preserve">
<g>
	<g>
		<path d="M344.328,129.959l-53.49,101.51L202.511,63.843L0,448.157h370.528h34.491H512L344.328,129.959z M344.328,195.414
			l39.763,75.46c-0.573,0.354-1.118,0.699-1.629,1.023c-3.132,1.992-3.974,2.527-7.255,2.527c-3.281,0-4.123-0.535-7.255-2.527
			c-4.566-2.903-11.466-7.29-23.627-7.29c-12.159,0-19.059,4.387-23.625,7.29c-3.123,1.985-3.971,2.523-7.227,2.526l-5.389-10.227
			L344.328,195.414z M202.509,129.299l54.461,103.352c-1.859,1.017-3.502,2.057-4.993,3.004c-4.026,2.559-5.863,3.728-11.034,3.728
			c-5.17,0-7.007-1.168-11.033-3.728c-5.637-3.583-13.356-8.491-27.405-8.491s-21.766,4.908-27.402,8.491
			c-4.025,2.559-5.863,3.727-11.031,3.727c-5.168,0-7.006-1.168-11.031-3.727c-1.49-0.947-3.132-1.987-4.992-3.004L202.509,129.299z
			 M50.572,417.643v-0.001l83.248-157.985c0.865,0.488,1.78,1.068,2.85,1.749c5.636,3.583,13.355,8.491,27.402,8.491
			c14.049,0,21.766-4.908,27.402-8.491c4.025-2.559,5.863-3.727,11.031-3.727c5.17,0,7.008,1.168,11.034,3.728
			c5.637,3.583,13.356,8.491,27.404,8.491c14.05,0,21.768-4.908,27.405-8.491c1.071-0.681,1.987-1.26,2.852-1.748l83.248,157.985
			H50.572z M388.941,417.641L388.941,417.641l-60.752-115.293c3.774-1.455,6.618-3.26,8.884-4.701
			c3.132-1.992,3.973-2.526,7.253-2.526c3.281,0,4.124,0.535,7.255,2.527c4.566,2.903,11.466,7.29,23.627,7.29
			c11.751,0,18.584-4.093,23.151-6.989l63.07,119.692H388.941z"/>
	</g>
</g>
<g>
</g>
<g>
</g>
<g>
</g>
<g>
</g>
<g>
</g>
<g>
</g>
<g>
</g>
<g>
</g>
<g>
</g>
<g>
</g>
<g>
</g>
<g>
</g>
<g>
</g>
<g>
</g>
<g>
</g>
</svg>
