<svg id="_x33_0" enable-background="new 0 0 64 64" height="512" viewBox="0 0 64 64" width="512" xmlns="http://www.w3.org/2000/svg" xmlns:xlink="http://www.w3.org/1999/xlink"><linearGradient id="SVGID_1_" gradientUnits="userSpaceOnUse" x1="32" x2="32" y1="63" y2="1"><stop offset="0" stop-color="#9f2fff"/><stop offset="1" stop-color="#0bb1d3"/></linearGradient><path d="m27 11v-2h2v2zm-6 0v-2h-2v2zm24 0v-2h-2v2zm0 9.303v5.655l2.022 24.269-2.983 5.219c1.741.783 2.961 2.525 2.961 4.554v3h-30v-3c0-2.029 1.22-3.771 2.96-4.555l-2.983-5.219 2.023-24.268v-5.655l-4-6v-7.303c-1.103 0-2-.897-2-2v-2c0-1.103.897-2 2-2h34c1.103 0 2 .897 2 2v2c0 1.103-.897 2-2 2v7.303zm-3.009 34.697 2.286-4h-24.554l2.286 4zm-16.991-48v6h6v-6zm14 6v-6h-6v6zm-21.132 2 2.667 4h22.93l2.667-4zm3.132 10h1.132l-1.132-1.697zm19-.803 2.132-3.197h-4.263zm-4-2.394-2.132 3.197h4.263zm-1.868-.803h-4.263l2.131 3.197zm-6.132.803-2.132 3.197h4.263zm-1.868-.803h-4.263l2.131 3.197zm.827 6-.917 22h4.958v-22zm6.041 22h4.958l-.917-22h-4.041zm8.868-24h1.132v-1.697zm-20.948 2-1.833 22h4.954l.917-22zm23.993 22-1.833-22h-4.037l.917 22zm2.087-42h-6v6h6zm-32-2h34.001l-.001-2h-34zm2 2v6h6v-6zm25 50h-20c-1.654 0-3 1.346-3 3v1h26v-1c0-1.654-1.346-3-3-3zm-7-48v2h2v-2z" fill="url(#SVGID_1_)"/></svg>