<?xml version="1.0" encoding="iso-8859-1"?>
<!-- Generator: Adobe Illustrator 19.0.0, SVG Export Plug-In . SVG Version: 6.00 Build 0)  -->
<svg version="1.1" id="Capa_1" xmlns="http://www.w3.org/2000/svg" xmlns:xlink="http://www.w3.org/1999/xlink" x="0px" y="0px"
	 viewBox="0 0 512 512" style="enable-background:new 0 0 512 512;" xml:space="preserve">
<g>
	<g>
		<path d="M196,150c-8.284,0-15,6.716-15,15v212c0,8.284,6.716,15,15,15s15-6.716,15-15V165C211,156.716,204.284,150,196,150z"/>
	</g>
</g>
<g>
	<g>
		<path d="M256,150c-8.284,0-15,6.716-15,15v212c0,8.284,6.716,15,15,15s15-6.716,15-15V165C271,156.716,264.284,150,256,150z"/>
	</g>
</g>
<g>
	<g>
		<path d="M316,150c-8.284,0-15,6.716-15,15v212c0,8.284,6.716,15,15,15s15-6.716,15-15V165C331,156.716,324.284,150,316,150z"/>
	</g>
</g>
<g>
	<g>
		<path d="M406,150c41.355,0,75-33.645,75-75S447.355,0,406,0H106C64.645,0,31,33.645,31,75s33.645,75,75,75
			c5.258,0,10.305-0.915,15-2.58v277.16c-17.459,6.192-30,22.865-30,42.42v30c0,8.284,6.716,15,15,15h300c8.284,0,15-6.716,15-15
			v-30c0-19.555-12.541-36.228-30-42.42V147.42C395.695,149.085,400.742,150,406,150z M391,482H121v-15c0-8.271,6.729-15,15-15h240
			c8.271,0,15,6.729,15,15V482z M151,422V120h210v302H151z M363.58,90H148.42c-6.192-17.458-22.865-30-42.42-30
			c-8.284,0-15,6.716-15,15s6.716,15,15,15c8.271,0,15,6.729,15,15s-6.729,15-15,15c-24.813,0-45-20.187-45-45s20.187-45,45-45h300
			c24.813,0,45,20.187,45,45s-20.187,45-45,45c-8.271,0-15-6.729-15-15s6.729-15,15-15c8.284,0,15-6.716,15-15s-6.716-15-15-15
			C386.445,60,369.772,72.542,363.58,90z"/>
	</g>
</g>
<g>
</g>
<g>
</g>
<g>
</g>
<g>
</g>
<g>
</g>
<g>
</g>
<g>
</g>
<g>
</g>
<g>
</g>
<g>
</g>
<g>
</g>
<g>
</g>
<g>
</g>
<g>
</g>
<g>
</g>
</svg>
